<svg width="74" height="74" viewBox="0 0 74 74" fill="none" xmlns="http://www.w3.org/2000/svg">
<g clip-path="url(#clip0_909_18299)">
<path d="M41.8689 33.8271V41.5648C44.26 41.5698 47.4129 41.5689 48.6491 41.586C49.7167 41.6008 50.4292 41.6211 50.9175 41.6491C51.4057 41.6771 51.6694 41.7128 51.8396 41.7579C52.1781 41.8464 52.5103 41.9602 52.8339 42.0972C53.1575 42.2342 53.4725 42.3945 53.7765 42.5754C54.0805 42.7564 54.3735 42.9582 54.6533 43.1786C54.933 43.3989 55.1995 43.6378 55.4503 43.893C55.7011 44.1482 55.9363 44.4196 56.1535 44.7051C56.3708 44.9905 56.5701 45.2898 56.7491 45.6009C56.9281 45.9121 57.0868 46.2351 57.2229 46.5674C57.359 46.8997 57.4725 47.2415 57.561 47.5904C57.6139 47.7969 57.6569 48.0055 57.6902 48.2153C57.7234 48.4251 57.7472 48.6362 57.7613 48.8479C57.7755 49.0597 57.7803 49.2721 57.776 49.4844C57.7717 49.6968 57.7583 49.9091 57.7361 50.1207C57.7139 50.3324 57.6831 50.5433 57.6436 50.753C57.6041 50.9626 57.556 51.1709 57.4997 51.3773C57.4435 51.5836 57.379 51.7881 57.3067 51.9898C57.2344 52.1914 57.1541 52.3905 57.0663 52.5862C56.9784 52.7819 56.8829 52.9742 56.78 53.1627C56.6772 53.3511 56.5671 53.5355 56.4499 53.7154C56.3327 53.8952 56.2086 54.0705 56.0776 54.2404C55.9467 54.4104 55.809 54.575 55.6649 54.7337C55.5208 54.8924 55.3702 55.0452 55.2135 55.1914C55.0568 55.3376 54.8938 55.4773 54.7251 55.6096C54.5564 55.742 54.3818 55.867 54.2017 55.9841C54.0216 56.1013 53.8359 56.2106 53.6449 56.3112C53.4123 56.4327 53.2214 56.5385 53.0349 56.6304C52.8483 56.7223 52.666 56.8004 52.4508 56.8668C52.2357 56.9332 51.9878 56.9877 51.6695 57.0328C51.3512 57.0778 50.9627 57.1132 50.4667 57.141C49.9707 57.1688 49.3669 57.189 48.6186 57.2036C47.8703 57.2183 46.9772 57.2273 45.9019 57.2329C43.7514 57.2442 40.8725 57.2417 36.9669 57.2417H22.8995L22.9412 52.798L22.9827 48.3681L22.219 49.104C21.1497 50.1317 10.1235 60.6995 9.80405 61.005C9.7676 61.038 9.72617 61.057 9.69807 61.0811C9.66997 61.1051 9.65531 61.1341 9.67224 61.1868C9.68916 61.2396 9.73778 61.3161 9.8364 61.4352C9.93502 61.5543 10.0836 61.7158 10.3006 61.9389C10.7346 62.385 11.4419 63.0768 12.5694 64.1647C13.6968 65.2527 15.2442 66.7368 17.3585 68.7677C19.4554 70.7813 21.5802 72.8227 22.0801 73.2948L22.9827 74.1836L22.9412 69.6009L22.8995 65.0323L37.5224 64.9906L52.1451 64.9351L53.5339 64.574C53.8862 64.4803 54.2301 64.3787 54.566 64.2691C54.902 64.1595 55.2301 64.0419 55.5506 63.9159C55.8711 63.79 56.184 63.6555 56.49 63.5127C56.796 63.3699 57.095 63.2186 57.3875 63.0585C57.68 62.8984 57.9659 62.7295 58.2459 62.5516C58.5259 62.3736 58.7997 62.1866 59.0681 61.9903C59.3365 61.7941 59.5996 61.5886 59.8574 61.3736C60.1152 61.1585 60.3679 60.9338 60.6162 60.6994C60.926 60.4043 61.2216 60.0988 61.5029 59.7836C61.7841 59.4685 62.051 59.1438 62.3033 58.8105C62.5556 58.4772 62.7933 58.1353 63.0163 57.7858C63.2393 57.4364 63.4475 57.0793 63.6408 56.7156C63.8342 56.352 64.0127 55.9817 64.176 55.6058C64.3393 55.2299 64.4875 54.8484 64.6205 54.4621C64.7535 54.0759 64.8712 53.685 64.9734 53.2904C65.0757 52.8959 65.1624 52.4975 65.2336 52.0966C65.3048 51.6956 65.3603 51.2918 65.4 50.8864C65.4398 50.481 65.4636 50.0738 65.4716 49.6659C65.4796 49.258 65.4716 48.8494 65.4474 48.4409C65.4233 48.0324 65.383 47.6242 65.3264 47.2171C65.2697 46.81 65.1968 46.4041 65.1073 46.0004C65.0178 45.5967 64.912 45.1952 64.7893 44.7968C64.6667 44.3984 64.5273 44.0032 64.3711 43.6121C64.2149 43.221 64.0418 42.8341 63.8518 42.4522C63.7181 42.1849 63.5782 41.9231 63.4321 41.6668C63.2861 41.4105 63.1339 41.1596 62.9756 40.9145C62.8173 40.6694 62.6529 40.4299 62.4825 40.196C62.3122 39.9622 62.1359 39.7341 61.9537 39.5117C61.7714 39.2893 61.5832 39.0726 61.3892 38.8618C61.1951 38.651 60.9953 38.4458 60.7897 38.2467C60.5841 38.0475 60.3728 37.8544 60.1558 37.6671C59.9388 37.4798 59.716 37.2985 59.4878 37.1232C59.2595 36.9478 59.0257 36.7784 58.7864 36.6152C58.547 36.452 58.3021 36.2949 58.0518 36.1439C57.8015 35.9929 57.5458 35.8482 57.2847 35.7096C57.0237 35.571 56.7574 35.4386 56.4857 35.3125C56.214 35.1864 55.937 35.0667 55.6549 34.9533C55.3728 34.8399 55.0856 34.7329 54.7932 34.6323C54.2085 34.431 53.6032 34.2555 52.9783 34.1062C52.869 34.0784 52.7468 34.0537 52.5902 34.0316C52.4336 34.0094 52.2424 33.9898 51.9952 33.9724C51.5007 33.9374 50.7816 33.9109 49.6646 33.8892C48.3108 33.8629 44.7004 33.846 41.8689 33.8271Z" fill="#404040"/>
<path d="M32.3625 41.3564V33.6187C29.9714 33.6137 26.8186 33.6147 25.5823 33.5976C24.5148 33.5828 23.8022 33.5625 23.314 33.5345C22.8258 33.5065 22.562 33.4708 22.3919 33.4257C22.0534 33.3371 21.7211 33.2234 21.3975 33.0864C21.074 32.9493 20.7589 32.7891 20.4549 32.6081C20.1509 32.4272 19.8579 32.2253 19.5782 32.005C19.2984 31.7846 19.032 31.5457 18.7811 31.2906C18.5303 31.0354 18.2952 30.764 18.0779 30.4785C17.8607 30.1931 17.6613 29.8938 17.4823 29.5826C17.3033 29.2715 17.1446 28.9485 17.0085 28.6162C16.8724 28.2839 16.759 27.9421 16.6705 27.5932C16.6175 27.3866 16.5746 27.1781 16.5413 26.9683C16.508 26.7585 16.4843 26.5474 16.4701 26.3356C16.4559 26.1239 16.4511 25.9115 16.4554 25.6991C16.4597 25.4868 16.4731 25.2745 16.4953 25.0628C16.5175 24.8512 16.5484 24.6403 16.5879 24.4306C16.6274 24.221 16.6755 24.0126 16.7317 23.8063C16.7879 23.6 16.8524 23.3955 16.9247 23.1938C16.9971 22.9921 17.0773 22.7931 17.1652 22.5974C17.253 22.4017 17.3486 22.2093 17.4514 22.0209C17.5542 21.8324 17.6644 21.648 17.7815 21.4682C17.8987 21.2883 18.0228 21.1131 18.1538 20.9432C18.2847 20.7732 18.4224 20.6086 18.5665 20.4499C18.7107 20.2911 18.8612 20.1384 19.0179 19.9922C19.1746 19.846 19.3376 19.7063 19.5063 19.5739C19.6751 19.4416 19.8496 19.3166 20.0297 19.1994C20.2099 19.0823 20.3956 18.973 20.5865 18.8723C20.8191 18.7508 21.01 18.6451 21.1966 18.5532C21.3831 18.4613 21.5655 18.3832 21.7806 18.3168C21.9957 18.2504 22.2436 18.1958 22.5619 18.1508C22.8802 18.1058 23.2687 18.0704 23.7648 18.0426C24.2608 18.0148 24.8645 17.9946 25.6128 17.9799C26.3612 17.9653 27.2543 17.9563 28.3295 17.9506C30.48 17.9394 33.3589 17.9419 37.2646 17.9419H51.332L51.2903 22.3856L51.2488 26.8155L52.0124 26.0795C53.0817 25.0519 64.108 14.4841 64.4274 14.1786C64.4638 14.1456 64.5053 14.1266 64.5334 14.1025C64.5615 14.0785 64.5761 14.0495 64.5592 13.9967C64.5423 13.944 64.4937 13.8674 64.395 13.7484C64.2964 13.6293 64.1478 13.4678 63.9308 13.2447C63.4969 12.7986 62.7895 12.1068 61.6621 11.0189C60.5346 9.93092 58.9872 8.44681 56.8729 6.41586C54.776 4.40226 52.6513 2.36088 52.1513 1.88873L51.2488 0.999977L51.2903 5.58265L51.332 10.1513L36.709 10.193L22.0863 10.2485L20.6976 10.6096C20.3452 10.7033 20.0014 10.8049 19.6654 10.9145C19.3295 11.0241 19.0013 11.1417 18.6809 11.2676C18.3604 11.3936 18.0475 11.528 17.7415 11.6708C17.4355 11.8136 17.1365 11.9649 16.844 12.1251C16.5515 12.2852 16.2655 12.454 15.9855 12.632C15.7056 12.8099 15.4317 12.997 15.1633 13.1932C14.8949 13.3895 14.6319 13.5949 14.374 13.81C14.1162 14.0251 13.8635 14.2498 13.6153 14.4841C13.3054 14.7792 13.0098 15.0848 12.7286 15.3999C12.4473 15.7151 12.1804 16.0398 11.9281 16.3731C11.6758 16.7064 11.4381 17.0483 11.2151 17.3977C10.9921 17.7472 10.7839 18.1043 10.5906 18.4679C10.3973 18.8316 10.2187 19.2019 10.0554 19.5778C9.89209 19.9537 9.74389 20.3352 9.61093 20.7214C9.47798 21.1077 9.36023 21.4986 9.258 21.8931C9.15576 22.2877 9.069 22.686 8.99783 23.087C8.92666 23.488 8.87117 23.8917 8.83142 24.2972C8.79168 24.7026 8.76779 25.1098 8.75982 25.5177C8.75185 25.9256 8.75982 26.3342 8.78403 26.7427C8.80817 27.1512 8.84843 27.5594 8.90506 27.9665C8.96169 28.3735 9.03468 28.7794 9.12414 29.1831C9.21362 29.5868 9.31945 29.9884 9.4421 30.3868C9.56474 30.7851 9.70414 31.1804 9.86033 31.5715C10.0165 31.9626 10.1896 32.3495 10.3797 32.7314C10.5133 32.9987 10.6533 33.2605 10.7993 33.5168C10.9454 33.7731 11.0975 34.0239 11.2558 34.2691C11.4141 34.5142 11.5785 34.7537 11.7489 34.9875C11.9192 35.2214 12.0955 35.4494 12.2778 35.6718C12.46 35.8943 12.6483 36.1109 12.8423 36.3218C13.0363 36.5326 13.2362 36.7378 13.4418 36.9369C13.6473 37.1361 13.8586 37.3292 14.0756 37.5165C14.2926 37.7038 14.5154 37.8851 14.7437 38.0604C14.9719 38.2357 15.2057 38.4051 15.445 38.5684C15.6844 38.7316 15.9293 38.8887 16.1796 39.0397C16.4299 39.1907 16.6856 39.3354 16.9467 39.474C17.2078 39.6126 17.4741 39.745 17.7457 39.8711C18.0174 39.9971 18.2944 40.1169 18.5765 40.2303C18.8586 40.3437 19.1458 40.4507 19.4382 40.5513C20.023 40.7526 20.6282 40.9281 21.2531 41.0774C21.3625 41.1051 21.4846 41.1298 21.6412 41.152C21.7979 41.1742 21.989 41.1937 22.2363 41.2112C22.7308 41.2461 23.4498 41.2727 24.5668 41.2944C25.9207 41.3207 29.531 41.3376 32.3625 41.3564Z" fill="#FFD466"/>
</g>
<defs>
<clipPath id="clip0_909_18299">
<rect width="73.3227" height="73.3227" fill="white"/>
</clipPath>
</defs>
</svg>
