<svg width="250" height="82" viewBox="0 0 250 82" fill="none" xmlns="http://www.w3.org/2000/svg">
<path d="M117.449 18.3396C116.108 18.7017 114.787 19.756 114.191 20.9488C112.7 23.8774 114.223 27.3918 117.322 28.2012C120.591 29.0531 123.711 26.6996 123.722 23.3875C123.722 21.9605 123.211 20.7251 122.189 19.7028C120.879 18.3929 119.121 17.8923 117.449 18.3396Z" fill="#404040"/>
<path d="M102.103 64.6016H110.73V19.1277H102.103V64.6016Z" fill="#404040"/>
<path d="M129.366 33.5047H125.107V40.2139H129.356L129.388 49.8731C129.42 59.2448 129.43 59.5643 129.643 60.2352C130.399 62.6527 131.837 64.0371 134.318 64.7294C135.117 64.953 135.383 64.9743 138.259 64.9637C139.963 64.9637 141.72 64.9317 142.178 64.8785L142.998 64.7933V57.3385L141.635 57.4131C139.952 57.5089 139.26 57.3598 138.749 56.7741C138.099 56.0286 138.099 56.0712 138.099 47.7539V40.2139H143.211V33.5047H138.099V24.559H129.366V33.5047Z" fill="#404040"/>
<path d="M83.36 32.5463C82.1779 32.6954 81.2407 32.9616 80.3035 33.3983C79.1534 33.9307 78.5357 34.3887 77.3216 35.5708L76.3312 36.5292V33.5048H67.8115V78.6592H76.4377V61.3961L77.3216 62.2907C78.3653 63.3556 79.1534 63.952 80.2609 64.4952C83.0192 65.8796 86.9276 66.0394 90.3248 64.9105C95.213 63.2811 98.2908 59.0745 99.2386 52.7273C99.4622 51.2896 99.4303 46.9765 99.196 45.4962C98.557 41.5026 97.2258 38.574 95 36.263C93.2109 34.3993 91.0064 33.2279 88.3334 32.6954C87.3323 32.5037 84.393 32.4078 83.36 32.5463ZM85.5538 40.0969C86.4377 40.4164 87.066 40.821 87.7902 41.5346C89.4409 43.1959 90.2822 45.7625 90.2822 49.1597C90.2822 49.9478 90.2077 51.0234 90.1225 51.5559C89.4516 55.6773 86.9063 58.2119 83.4132 58.2119C80.1651 58.2119 77.6837 55.9968 76.6933 52.1948C76.3525 50.8956 76.2247 48.4249 76.4271 47.0191C77.0128 42.8764 79.4409 40.0862 82.721 39.7987C83.6262 39.7135 84.819 39.8413 85.5538 40.0969Z" fill="#404040"/>
<path d="M114.244 64.6016H122.977V33.5047H114.244V64.6016Z" fill="#404040"/>
<path d="M201.811 32.6633C199.021 32.9295 196.678 33.7282 194.942 35.0275C192.876 36.561 191.843 37.8709 191.108 39.8624C190.831 40.6505 190.362 42.7165 190.362 43.2064C190.362 43.4087 190.469 43.4087 194.835 43.4087H199.308V43.1105C199.308 42.5674 199.702 41.3746 200.064 40.8422C200.512 40.1925 201.097 39.7666 201.981 39.4577C202.567 39.2447 202.876 39.2128 204.154 39.2128C206.294 39.2128 207.37 39.5323 208.296 40.4588C209.159 41.332 209.521 42.4822 209.606 44.6867L209.67 46.2415L206.22 46.3693C197.625 46.6995 194.697 47.3917 192.215 49.6601C191.076 50.6931 190.075 52.4077 189.66 54.0051C189.393 55.0275 189.383 57.5301 189.638 58.5844C190.16 60.725 191.406 62.5993 193.078 63.7495C194.814 64.9423 197.37 65.6558 199.947 65.6664C203.802 65.6664 206.582 64.5695 209.127 62.0243L210.171 60.9806V64.6015H218.605L218.541 63.5046C218.499 62.9082 218.424 57.7431 218.382 52.0349C218.286 40.7676 218.296 40.8848 217.668 39.1276C216.497 35.8262 213.898 33.856 209.564 32.9827C207.562 32.5781 204.207 32.4396 201.811 32.6633ZM209.638 52.9082C209.638 54.6973 209.532 55.2937 209.042 56.1883C208.414 57.3491 206.795 58.4886 205.165 58.9252C204.1 59.2128 201.608 59.1808 200.767 58.872C199.596 58.4353 198.893 57.7538 198.595 56.7314C198.275 55.6025 198.605 54.1968 199.415 53.2703C200.49 52.0456 203.611 51.3746 208.552 51.3001L209.638 51.2894V52.9082Z" fill="#404040"/>
<path d="M141.055 33.5259C141.055 33.5472 143.27 40.5333 145.985 49.053L150.906 64.5483L155.485 64.5802L160.064 64.6015L162.673 54.0158C164.1 48.1904 165.293 43.43 165.304 43.4513C165.325 43.4726 166.443 48.1265 167.785 53.8028C169.127 59.479 170.256 64.2288 170.288 64.3672L170.341 64.6015H179.553L184.431 49.1276C187.104 40.6292 189.297 33.6324 189.297 33.5791C189.297 33.5365 187.21 33.5046 184.665 33.5046H180.043L179.936 33.8986C179.883 34.1223 178.744 38.9253 177.423 44.5802C176.092 50.2245 175.006 54.8677 174.984 54.8784C174.974 54.8997 174.25 51.8752 173.376 48.1691C172.514 44.4737 171.385 39.6601 170.874 37.4982L169.947 33.5578L165.581 33.5259L161.214 33.5046L158.573 44.0158C157.125 49.8092 155.9 54.5909 155.868 54.6654C155.826 54.7399 154.676 50.1606 153.312 44.495C151.939 38.8294 150.778 34.0477 150.725 33.856L150.629 33.5046H145.847C143.206 33.5046 141.055 33.5152 141.055 33.5259Z" fill="#404040"/>
<path d="M218.264 33.526C218.264 33.5473 220.778 40.6932 223.845 49.4152L229.436 65.2619L227.04 71.822C225.73 75.4323 224.654 78.4248 224.654 78.4674C224.654 78.5207 226.603 78.542 228.989 78.5313L233.334 78.4994L241.662 56.0287C246.241 43.6644 250 33.5473 250 33.526C250 33.5153 247.934 33.5153 245.4 33.526L240.799 33.5579L237.413 44.3034C235.559 50.2033 234.026 55.0595 234.005 55.0702C233.983 55.0915 232.599 50.2566 230.927 44.3354L227.881 33.5579L223.067 33.526C220.426 33.5153 218.264 33.5153 218.264 33.526Z" fill="#404040"/>
<g clip-path="url(#clip0_909_18295)">
<path d="M41.8689 33.8271V41.5648C44.26 41.5698 47.4129 41.5689 48.6491 41.586C49.7167 41.6008 50.4292 41.6211 50.9175 41.6491C51.4057 41.6771 51.6694 41.7128 51.8396 41.7579C52.1781 41.8464 52.5103 41.9602 52.8339 42.0972C53.1575 42.2342 53.4725 42.3945 53.7765 42.5754C54.0805 42.7564 54.3735 42.9582 54.6533 43.1786C54.933 43.3989 55.1995 43.6378 55.4503 43.893C55.7011 44.1482 55.9363 44.4196 56.1535 44.7051C56.3708 44.9905 56.5701 45.2898 56.7491 45.6009C56.9281 45.9121 57.0868 46.2351 57.2229 46.5674C57.359 46.8997 57.4725 47.2415 57.561 47.5904C57.6139 47.7969 57.6569 48.0055 57.6902 48.2153C57.7234 48.4251 57.7472 48.6362 57.7613 48.8479C57.7755 49.0597 57.7803 49.2721 57.776 49.4844C57.7717 49.6968 57.7583 49.9091 57.7361 50.1207C57.7139 50.3324 57.6831 50.5433 57.6436 50.753C57.6041 50.9626 57.556 51.1709 57.4997 51.3773C57.4435 51.5836 57.379 51.7881 57.3067 51.9898C57.2344 52.1914 57.1541 52.3905 57.0663 52.5862C56.9784 52.7819 56.8829 52.9742 56.78 53.1627C56.6772 53.3511 56.5671 53.5355 56.4499 53.7154C56.3327 53.8952 56.2086 54.0705 56.0776 54.2404C55.9467 54.4104 55.809 54.575 55.6649 54.7337C55.5208 54.8924 55.3702 55.0452 55.2135 55.1914C55.0568 55.3376 54.8938 55.4773 54.7251 55.6096C54.5564 55.742 54.3818 55.867 54.2017 55.9841C54.0216 56.1013 53.8359 56.2106 53.6449 56.3112C53.4123 56.4327 53.2214 56.5385 53.0349 56.6304C52.8483 56.7223 52.666 56.8004 52.4508 56.8668C52.2357 56.9332 51.9878 56.9877 51.6695 57.0328C51.3512 57.0778 50.9627 57.1132 50.4667 57.141C49.9707 57.1688 49.3669 57.189 48.6186 57.2036C47.8703 57.2183 46.9772 57.2273 45.9019 57.2329C43.7514 57.2442 40.8725 57.2417 36.9669 57.2417H22.8995L22.9412 52.798L22.9827 48.3681L22.219 49.104C21.1497 50.1317 10.1235 60.6995 9.80405 61.005C9.7676 61.038 9.72617 61.057 9.69807 61.0811C9.66997 61.1051 9.65531 61.1341 9.67224 61.1868C9.68916 61.2396 9.73778 61.3161 9.8364 61.4352C9.93502 61.5543 10.0836 61.7158 10.3006 61.9389C10.7346 62.385 11.4419 63.0768 12.5694 64.1647C13.6968 65.2527 15.2442 66.7368 17.3585 68.7677C19.4554 70.7813 21.5802 72.8227 22.0801 73.2948L22.9827 74.1836L22.9412 69.6009L22.8995 65.0323L37.5224 64.9906L52.1451 64.9351L53.5339 64.574C53.8862 64.4803 54.2301 64.3787 54.566 64.2691C54.902 64.1595 55.2301 64.0419 55.5506 63.9159C55.8711 63.79 56.184 63.6555 56.49 63.5127C56.796 63.3699 57.095 63.2186 57.3875 63.0585C57.68 62.8984 57.9659 62.7295 58.2459 62.5516C58.5259 62.3736 58.7997 62.1866 59.0681 61.9903C59.3365 61.7941 59.5996 61.5886 59.8574 61.3736C60.1152 61.1585 60.3679 60.9338 60.6162 60.6994C60.926 60.4043 61.2216 60.0988 61.5029 59.7836C61.7841 59.4685 62.051 59.1438 62.3033 58.8105C62.5556 58.4772 62.7933 58.1353 63.0163 57.7858C63.2393 57.4364 63.4475 57.0793 63.6408 56.7156C63.8342 56.352 64.0127 55.9817 64.176 55.6058C64.3393 55.2299 64.4875 54.8484 64.6205 54.4621C64.7535 54.0759 64.8712 53.685 64.9734 53.2904C65.0757 52.8959 65.1624 52.4975 65.2336 52.0966C65.3048 51.6956 65.3603 51.2918 65.4 50.8864C65.4398 50.481 65.4636 50.0738 65.4716 49.6659C65.4796 49.258 65.4716 48.8494 65.4474 48.4409C65.4233 48.0324 65.383 47.6242 65.3264 47.2171C65.2697 46.81 65.1968 46.4041 65.1073 46.0004C65.0178 45.5967 64.912 45.1952 64.7893 44.7968C64.6667 44.3984 64.5273 44.0032 64.3711 43.6121C64.2149 43.221 64.0418 42.8341 63.8518 42.4522C63.7181 42.1849 63.5782 41.9231 63.4321 41.6668C63.2861 41.4105 63.1339 41.1596 62.9756 40.9145C62.8173 40.6694 62.6529 40.4299 62.4825 40.196C62.3122 39.9622 62.1359 39.7341 61.9537 39.5117C61.7714 39.2893 61.5832 39.0726 61.3892 38.8618C61.1951 38.651 60.9953 38.4458 60.7897 38.2467C60.5841 38.0475 60.3728 37.8544 60.1558 37.6671C59.9388 37.4798 59.716 37.2985 59.4878 37.1232C59.2595 36.9478 59.0257 36.7784 58.7864 36.6152C58.547 36.452 58.3021 36.2949 58.0518 36.1439C57.8015 35.9929 57.5458 35.8482 57.2847 35.7096C57.0237 35.571 56.7574 35.4386 56.4857 35.3125C56.214 35.1864 55.937 35.0667 55.6549 34.9533C55.3728 34.8399 55.0856 34.7329 54.7932 34.6323C54.2085 34.431 53.6032 34.2555 52.9783 34.1062C52.869 34.0784 52.7468 34.0537 52.5902 34.0316C52.4336 34.0094 52.2424 33.9898 51.9952 33.9724C51.5007 33.9374 50.7816 33.9109 49.6646 33.8892C48.3108 33.8629 44.7004 33.846 41.8689 33.8271Z" fill="#404040"/>
<path d="M32.3625 41.3564V33.6187C29.9714 33.6137 26.8186 33.6147 25.5823 33.5976C24.5148 33.5828 23.8022 33.5625 23.314 33.5345C22.8258 33.5065 22.562 33.4708 22.3919 33.4257C22.0534 33.3371 21.7211 33.2234 21.3975 33.0864C21.074 32.9493 20.7589 32.7891 20.4549 32.6081C20.1509 32.4272 19.8579 32.2253 19.5782 32.005C19.2984 31.7846 19.032 31.5457 18.7811 31.2906C18.5303 31.0354 18.2952 30.764 18.0779 30.4785C17.8607 30.1931 17.6613 29.8938 17.4823 29.5826C17.3033 29.2715 17.1446 28.9485 17.0085 28.6162C16.8724 28.2839 16.759 27.9421 16.6705 27.5932C16.6175 27.3866 16.5746 27.1781 16.5413 26.9683C16.508 26.7585 16.4843 26.5474 16.4701 26.3356C16.4559 26.1239 16.4511 25.9115 16.4554 25.6991C16.4597 25.4868 16.4731 25.2745 16.4953 25.0628C16.5175 24.8512 16.5484 24.6403 16.5879 24.4306C16.6274 24.221 16.6755 24.0126 16.7317 23.8063C16.7879 23.6 16.8524 23.3955 16.9247 23.1938C16.9971 22.9921 17.0773 22.7931 17.1652 22.5974C17.253 22.4017 17.3486 22.2093 17.4514 22.0209C17.5542 21.8324 17.6644 21.648 17.7815 21.4682C17.8987 21.2883 18.0228 21.1131 18.1538 20.9432C18.2847 20.7732 18.4224 20.6086 18.5665 20.4499C18.7107 20.2911 18.8612 20.1384 19.0179 19.9922C19.1746 19.846 19.3376 19.7063 19.5063 19.5739C19.6751 19.4416 19.8496 19.3166 20.0297 19.1994C20.2099 19.0823 20.3956 18.973 20.5865 18.8723C20.8191 18.7508 21.01 18.6451 21.1966 18.5532C21.3831 18.4613 21.5655 18.3832 21.7806 18.3168C21.9957 18.2504 22.2436 18.1958 22.5619 18.1508C22.8802 18.1058 23.2687 18.0704 23.7648 18.0426C24.2608 18.0148 24.8645 17.9946 25.6128 17.9799C26.3612 17.9653 27.2543 17.9563 28.3295 17.9506C30.48 17.9394 33.3589 17.9419 37.2646 17.9419H51.332L51.2903 22.3856L51.2488 26.8155L52.0124 26.0795C53.0817 25.0519 64.108 14.4841 64.4274 14.1786C64.4638 14.1456 64.5053 14.1266 64.5334 14.1025C64.5615 14.0785 64.5761 14.0495 64.5592 13.9967C64.5423 13.944 64.4937 13.8674 64.395 13.7484C64.2964 13.6293 64.1478 13.4678 63.9308 13.2447C63.4969 12.7986 62.7895 12.1068 61.6621 11.0189C60.5346 9.93092 58.9872 8.44681 56.8729 6.41586C54.776 4.40226 52.6513 2.36088 52.1513 1.88873L51.2488 0.999977L51.2903 5.58265L51.332 10.1513L36.709 10.193L22.0863 10.2485L20.6976 10.6096C20.3452 10.7033 20.0014 10.8049 19.6654 10.9145C19.3295 11.0241 19.0013 11.1417 18.6809 11.2676C18.3604 11.3936 18.0475 11.528 17.7415 11.6708C17.4355 11.8136 17.1365 11.9649 16.844 12.1251C16.5515 12.2852 16.2655 12.454 15.9855 12.632C15.7056 12.8099 15.4317 12.997 15.1633 13.1932C14.8949 13.3895 14.6319 13.5949 14.374 13.81C14.1162 14.0251 13.8635 14.2498 13.6153 14.4841C13.3054 14.7792 13.0098 15.0848 12.7286 15.3999C12.4473 15.7151 12.1804 16.0398 11.9281 16.3731C11.6758 16.7064 11.4381 17.0483 11.2151 17.3977C10.9921 17.7472 10.7839 18.1043 10.5906 18.4679C10.3973 18.8316 10.2187 19.2019 10.0554 19.5778C9.89209 19.9537 9.74389 20.3352 9.61093 20.7214C9.47798 21.1077 9.36023 21.4986 9.258 21.8931C9.15576 22.2877 9.069 22.686 8.99783 23.087C8.92666 23.488 8.87117 23.8917 8.83142 24.2972C8.79168 24.7026 8.76779 25.1098 8.75982 25.5177C8.75185 25.9256 8.75982 26.3342 8.78403 26.7427C8.80817 27.1512 8.84843 27.5594 8.90506 27.9665C8.96169 28.3735 9.03468 28.7794 9.12414 29.1831C9.21362 29.5868 9.31945 29.9884 9.4421 30.3868C9.56474 30.7851 9.70414 31.1804 9.86033 31.5715C10.0165 31.9626 10.1896 32.3495 10.3797 32.7314C10.5133 32.9987 10.6533 33.2605 10.7993 33.5168C10.9454 33.7731 11.0975 34.0239 11.2558 34.2691C11.4141 34.5142 11.5785 34.7537 11.7489 34.9875C11.9192 35.2214 12.0955 35.4494 12.2778 35.6718C12.46 35.8943 12.6483 36.1109 12.8423 36.3218C13.0363 36.5326 13.2362 36.7378 13.4418 36.9369C13.6473 37.1361 13.8586 37.3292 14.0756 37.5165C14.2926 37.7038 14.5154 37.8851 14.7437 38.0604C14.9719 38.2357 15.2057 38.4051 15.445 38.5684C15.6844 38.7316 15.9293 38.8887 16.1796 39.0397C16.4299 39.1907 16.6856 39.3354 16.9467 39.474C17.2078 39.6126 17.4741 39.745 17.7457 39.8711C18.0174 39.9971 18.2944 40.1169 18.5765 40.2303C18.8586 40.3437 19.1458 40.4507 19.4382 40.5513C20.023 40.7526 20.6282 40.9281 21.2531 41.0774C21.3625 41.1051 21.4846 41.1298 21.6412 41.152C21.7979 41.1742 21.989 41.1937 22.2363 41.2112C22.7308 41.2461 23.4498 41.2727 24.5668 41.2944C25.9207 41.3207 29.531 41.3376 32.3625 41.3564Z" fill="#0085FF"/>
</g>
<path d="M112.67 69.8657C112.354 70.0365 112.153 70.368 112.153 70.7246C112.153 71.2771 112.544 71.6638 113.101 71.6638C114.044 71.6638 114.38 70.4333 113.588 69.9109C113.317 69.7351 112.951 69.72 112.67 69.8657Z" fill="#404040"/>
<path d="M133.331 69.8657C133.015 70.0365 132.814 70.368 132.814 70.7246C132.814 71.2771 133.206 71.6638 133.762 71.6638C134.705 71.6638 135.041 70.4333 134.249 69.9109C133.978 69.7351 133.612 69.72 133.331 69.8657Z" fill="#404040"/>
<path d="M175.605 69.8657C175.289 70.0365 175.089 70.368 175.089 70.7246C175.089 71.2771 175.48 71.6638 176.037 71.6638C176.979 71.6638 177.315 70.4333 176.523 69.9109C176.252 69.7351 175.886 69.72 175.605 69.8657Z" fill="#404040"/>
<path d="M198.824 69.8657C198.508 70.0365 198.308 70.368 198.308 70.7246C198.308 71.2771 198.699 71.6638 199.255 71.6638C200.198 71.6638 200.534 70.4333 199.742 69.9109C199.471 69.7351 199.105 69.72 198.824 69.8657Z" fill="#404040"/>
<path d="M96.4219 74.2505V78.5449H97.2192H98.0216L98.0366 76.6011C98.0517 74.7327 98.0567 74.6423 98.157 74.4263C98.4228 73.8738 98.9945 73.6327 99.506 73.8688C99.7467 73.9793 99.847 74.0848 99.9673 74.351C100.048 74.5318 100.058 74.7628 100.073 76.5459L100.088 78.5449H100.89H101.692L101.677 76.1692L101.662 73.7985L101.507 73.467C101.226 72.8743 100.765 72.5529 100.048 72.4524C99.3706 72.352 98.7186 72.5328 98.2773 72.9497L98.0266 73.1857V71.5684V69.9561H97.2242H96.4219V74.2505Z" fill="#404040"/>
<path d="M139.449 71.6186V73.2811L139.218 73.045C138.577 72.4021 137.503 72.2815 136.561 72.7436C135.884 73.0751 135.407 73.7381 135.212 74.6472C135.086 75.1997 135.126 76.3097 135.287 76.812C135.633 77.907 136.34 78.5599 137.338 78.7056C138.09 78.8161 138.797 78.6252 139.269 78.1932L139.499 77.9773V78.2636V78.5448H140.302H141.104V74.2504V69.956H140.277H139.449V71.6186ZM138.516 73.929C138.777 73.9993 139.118 74.3308 139.274 74.6523C139.6 75.3454 139.509 76.3449 139.063 76.9275C138.702 77.4047 137.789 77.48 137.348 77.0732C136.686 76.4604 136.641 74.9134 137.258 74.2304C137.528 73.934 138.07 73.8034 138.516 73.929Z" fill="#404040"/>
<path d="M191.954 74.2506V78.5449H192.756H193.559V78.2687V77.9924L193.784 78.2084C194.166 78.5751 194.627 78.7458 195.239 78.7458C196.126 78.7458 196.889 78.3541 197.35 77.6559C197.766 77.0281 197.977 75.9934 197.872 75.0743C197.801 74.4715 197.751 74.2857 197.541 73.8337C197.21 73.1456 196.578 72.6584 195.846 72.5227C195.008 72.367 194.296 72.5479 193.79 73.0401L193.559 73.2661V71.6136V69.9562H192.756H191.954V74.2506ZM195.389 73.9693C195.655 74.0948 195.831 74.2857 196.001 74.6524C196.131 74.9336 196.141 74.9939 196.141 75.6067C196.141 76.2194 196.131 76.2797 195.996 76.5761C195.755 77.0934 195.399 77.3395 194.878 77.3395C194.502 77.3345 194.236 77.2139 193.975 76.9176C193.704 76.6062 193.604 76.3149 193.574 75.7272C193.549 75.3254 193.564 75.1797 193.649 74.8935C193.774 74.4816 194.07 74.1099 194.386 73.9693C194.652 73.8437 195.123 73.8487 195.389 73.9693Z" fill="#404040"/>
<path d="M200.78 74.2505V78.5449H201.583H202.385V74.2505V69.9561H201.583H200.78V74.2505Z" fill="#404040"/>
<path d="M203.087 74.2505V78.5449H203.889H204.692V74.2505V69.9561H203.889H203.087V74.2505Z" fill="#404040"/>
<path d="M117.389 72.4725C117.053 72.5378 116.732 72.7136 116.471 72.9798L116.231 73.2159V72.9446V72.6684H115.428H114.626V75.6067V78.5449H115.423H116.226L116.241 76.6011C116.256 74.8533 116.266 74.6323 116.346 74.4514C116.542 74.0195 116.858 73.8085 117.309 73.8085C117.855 73.8085 118.151 74.0898 118.237 74.6825C118.262 74.8583 118.287 75.8025 118.287 76.7719V78.5449H119.089H119.892V76.3349C119.892 74.0195 119.871 73.7884 119.666 73.3716C119.54 73.1204 119.194 72.7739 118.939 72.6433C118.573 72.4524 117.871 72.3771 117.389 72.4725Z" fill="#404040"/>
<path d="M180.325 72.4725C179.989 72.5378 179.668 72.7136 179.407 72.9798L179.166 73.2159V72.9446V72.6684H178.364H177.562V75.6067V78.5449H178.359H179.161L179.176 76.6011C179.191 74.8533 179.201 74.6323 179.282 74.4514C179.477 74.0195 179.793 73.8085 180.244 73.8085C180.791 73.8085 181.087 74.0898 181.172 74.6825C181.197 74.8583 181.222 75.8025 181.222 76.7719V78.5449H182.025H182.827V76.3349C182.827 74.0195 182.807 73.7884 182.601 73.3716C182.476 73.1204 182.13 72.7739 181.874 72.6433C181.508 72.4524 180.806 72.3771 180.325 72.4725Z" fill="#404040"/>
<path d="M104.471 72.4978C104.416 72.5079 104.245 72.543 104.095 72.5732C103.573 72.6786 103.027 73.0302 102.746 73.4371C102.59 73.6681 102.47 73.9795 102.415 74.311L102.38 74.527H103.232H104.08L104.115 74.3361C104.18 73.9293 104.476 73.7233 105.013 73.7233C105.67 73.7233 106.001 74.0649 106.001 74.7379V75.0795H105.79C105.308 75.0845 104.05 75.19 103.739 75.2553C102.671 75.4763 102.064 76.31 102.244 77.3146C102.395 78.1584 103.042 78.6657 104.045 78.731C104.787 78.7762 105.349 78.5903 105.835 78.1282L106.101 77.8771V78.2136V78.5451H106.893H107.68L107.665 76.3703C107.645 74.0096 107.625 73.8037 107.365 73.3718C107.169 73.0503 106.798 72.7891 106.326 72.6384C105.996 72.533 105.805 72.5079 105.248 72.4928C104.877 72.4827 104.526 72.4827 104.471 72.4978ZM105.996 76.4507C105.975 76.8173 105.96 76.8927 105.835 77.0534C105.494 77.5054 104.626 77.6661 104.18 77.3698C103.879 77.1689 103.844 76.6867 104.105 76.4004C104.311 76.1794 104.847 76.0539 105.67 76.0388L106.011 76.0338L105.996 76.4507Z" fill="#404040"/>
<path d="M122.499 72.5028C121.596 72.6535 120.889 73.3115 120.558 74.2959C120.428 74.6776 120.423 74.758 120.423 75.6068C120.423 76.4557 120.428 76.536 120.558 76.9178C120.964 78.1332 121.937 78.8214 123.126 78.7309C123.637 78.6908 124.003 78.5351 124.364 78.2036L124.67 77.9173L124.645 78.4647C124.62 78.9319 124.595 79.0474 124.47 79.2885C124.264 79.6953 123.983 79.8611 123.457 79.8912C122.835 79.9263 122.464 79.7606 122.288 79.3638L122.193 79.1478H121.371C120.919 79.1478 120.538 79.1679 120.523 79.193C120.473 79.2734 120.598 79.7656 120.734 80.0168C120.809 80.1524 120.979 80.3633 121.115 80.4889C121.601 80.9259 122.098 81.0966 123.026 81.1418C124.5 81.2122 125.513 80.74 125.969 79.7656C126.24 79.193 126.255 78.957 126.26 75.6671V72.6686H125.458H124.655V72.9498V73.2311L124.42 73.0202C123.908 72.5681 123.216 72.3823 122.499 72.5028ZM123.893 73.9644C124.304 74.1503 124.58 74.6274 124.645 75.2603C124.731 76.0388 124.54 76.7219 124.149 77.0534C123.687 77.4552 122.955 77.4351 122.529 77.0082C121.887 76.3653 121.952 74.6123 122.629 74.09C122.97 73.8338 123.497 73.7786 123.893 73.9644Z" fill="#404040"/>
<path d="M143.862 72.5479C143.055 72.7237 142.348 73.2863 141.962 74.0748C141.706 74.6022 141.605 75.0492 141.605 75.7323C141.605 77.1387 142.287 78.1683 143.486 78.5701C144.579 78.9368 145.818 78.6957 146.545 77.9674C146.831 77.6861 147.172 77.1437 147.172 76.9779C147.172 76.9177 147.062 76.8976 146.685 76.8725C145.978 76.8222 145.517 76.8323 145.517 76.8875C145.517 76.9126 145.447 77.0131 145.362 77.1136C145.166 77.3346 144.765 77.4651 144.384 77.425C143.782 77.3647 143.421 77.0031 143.321 76.3652L143.275 76.0839H145.306H147.337L147.307 75.4912C147.272 74.8182 147.187 74.4515 146.951 73.9493C146.425 72.8292 145.176 72.2616 143.862 72.5479ZM144.955 73.8538C145.331 74.0095 145.597 74.3862 145.652 74.8333L145.682 75.0794H144.494H143.31V74.9638C143.31 74.773 143.406 74.5068 143.556 74.2707C143.827 73.8438 144.469 73.6479 144.955 73.8538Z" fill="#404040"/>
<path d="M165.701 72.4978C165.646 72.5079 165.476 72.543 165.325 72.5732C164.804 72.6786 164.257 73.0302 163.976 73.4371C163.821 73.6681 163.701 73.9795 163.645 74.311L163.61 74.527H164.463H165.31L165.345 74.3361C165.411 73.9293 165.706 73.7233 166.243 73.7233C166.9 73.7233 167.231 74.0649 167.231 74.7379V75.0795H167.02C166.539 75.0845 165.28 75.19 164.969 75.2553C163.901 75.4763 163.294 76.31 163.475 77.3146C163.625 78.1584 164.272 78.6657 165.275 78.731C166.017 78.7762 166.579 78.5903 167.066 78.1282L167.331 77.8771V78.2136V78.5451H168.124H168.911L168.896 76.3703C168.876 74.0096 168.856 73.8037 168.595 73.3718C168.399 73.0503 168.028 72.7891 167.557 72.6384C167.226 72.533 167.035 72.5079 166.479 72.4928C166.108 72.4827 165.757 72.4827 165.701 72.4978ZM167.226 76.4507C167.206 76.8173 167.191 76.8927 167.066 77.0534C166.724 77.5054 165.857 77.6661 165.411 77.3698C165.11 77.1689 165.075 76.6867 165.335 76.4004C165.541 76.1794 166.078 76.0539 166.9 76.0388L167.241 76.0338L167.226 76.4507Z" fill="#404040"/>
<path d="M185.435 72.5028C184.532 72.6535 183.825 73.3115 183.494 74.2959C183.363 74.6776 183.358 74.758 183.358 75.6068C183.358 76.4557 183.363 76.536 183.494 76.9178C183.9 78.1332 184.873 78.8214 186.061 78.7309C186.573 78.6908 186.939 78.5351 187.3 78.2036L187.606 77.9173L187.581 78.4647C187.556 78.9319 187.531 79.0474 187.405 79.2885C187.2 79.6953 186.919 79.8611 186.392 79.8912C185.771 79.9263 185.399 79.7606 185.224 79.3638L185.129 79.1478H184.306C183.855 79.1478 183.474 79.1679 183.459 79.193C183.409 79.2734 183.534 79.7656 183.669 80.0168C183.745 80.1524 183.915 80.3633 184.05 80.4889C184.537 80.9259 185.033 81.0966 185.961 81.1418C187.435 81.2122 188.448 80.74 188.905 79.7656C189.176 79.193 189.191 78.957 189.196 75.6671V72.6686H188.393H187.591V72.9498V73.2311L187.355 73.0202C186.844 72.5681 186.152 72.3823 185.435 72.5028ZM186.829 73.9644C187.24 74.1503 187.516 74.6274 187.581 75.2603C187.666 76.0388 187.476 76.7219 187.084 77.0534C186.623 77.4552 185.891 77.4351 185.465 77.0082C184.823 76.3653 184.888 74.6123 185.565 74.09C185.906 73.8338 186.432 73.7786 186.829 73.9644Z" fill="#404040"/>
<path d="M92.6411 72.5681C92.0193 72.6786 91.588 72.8946 91.257 73.2512C90.9612 73.5726 90.8408 73.869 90.8157 74.3511C90.7806 75.0443 90.9662 75.426 91.5128 75.7826C91.8789 76.0187 92.2099 76.1342 93.2078 76.3602C93.6341 76.4556 94.0503 76.5762 94.1355 76.6264C94.5016 76.8424 94.3963 77.2944 93.94 77.4501C93.8046 77.4953 93.5639 77.5355 93.4134 77.5405C92.8467 77.5405 92.4807 77.3447 92.3352 76.9629L92.245 76.7369H91.4526H90.6553V76.8524C90.6553 77.0785 90.8157 77.5707 90.9662 77.8017C91.3523 78.4095 92.1647 78.741 93.263 78.741C94.9178 78.741 95.9258 77.9675 95.9258 76.7018C95.9258 76.2648 95.7854 75.9032 95.5046 75.6219C95.2438 75.3607 94.6922 75.1045 94.1305 74.979C92.6562 74.6575 92.5057 74.6023 92.4104 74.3813C92.3453 74.2256 92.3954 74.0448 92.5408 73.9142C92.6812 73.7886 93.0824 73.7082 93.3833 73.7384C93.8597 73.7886 94.1105 73.9795 94.2358 74.3863C94.2609 74.4667 94.3462 74.4767 95.0482 74.4767H95.8355L95.8055 74.2256C95.7704 73.9343 95.6299 73.5977 95.4444 73.3466C95.2538 73.1005 94.7674 72.7891 94.3712 72.6635C93.9951 72.548 93.0523 72.4928 92.6411 72.5681Z" fill="#404040"/>
<path d="M149.609 72.5681C148.987 72.6786 148.556 72.8946 148.225 73.2512C147.929 73.5726 147.809 73.869 147.784 74.3511C147.748 75.0443 147.934 75.426 148.481 75.7826C148.847 76.0187 149.178 76.1342 150.176 76.3602C150.602 76.4556 151.018 76.5762 151.103 76.6264C151.469 76.8424 151.364 77.2944 150.908 77.4501C150.772 77.4953 150.532 77.5355 150.381 77.5405C149.815 77.5405 149.448 77.3447 149.303 76.9629L149.213 76.7369H148.42H147.623V76.8524C147.623 77.0785 147.784 77.5707 147.934 77.8017C148.32 78.4095 149.132 78.741 150.231 78.741C151.886 78.741 152.894 77.9675 152.894 76.7018C152.894 76.2648 152.753 75.9032 152.472 75.6219C152.212 75.3607 151.66 75.1045 151.098 74.979C149.624 74.6575 149.474 74.6023 149.378 74.3813C149.313 74.2256 149.363 74.0448 149.509 73.9142C149.649 73.7886 150.05 73.7082 150.351 73.7384C150.827 73.7886 151.078 73.9795 151.204 74.3863C151.229 74.4667 151.314 74.4767 152.016 74.4767H152.803L152.773 74.2256C152.738 73.9343 152.598 73.5977 152.412 73.3466C152.222 73.1005 151.735 72.7891 151.339 72.6635C150.963 72.548 150.02 72.4928 149.609 72.5681Z" fill="#404040"/>
<path d="M159.79 72.5681C159.168 72.6786 158.736 72.8946 158.405 73.2512C158.11 73.5726 157.989 73.869 157.964 74.3511C157.929 75.0443 158.115 75.426 158.661 75.7826C159.027 76.0187 159.358 76.1342 160.356 76.3602C160.782 76.4556 161.199 76.5762 161.284 76.6264C161.65 76.8424 161.545 77.2944 161.088 77.4501C160.953 77.4953 160.712 77.5355 160.562 77.5405C159.995 77.5405 159.629 77.3447 159.484 76.9629L159.393 76.7369H158.601H157.804V76.8524C157.804 77.0785 157.964 77.5707 158.115 77.8017C158.501 78.4095 159.313 78.741 160.411 78.741C162.066 78.741 163.074 77.9675 163.074 76.7018C163.074 76.2648 162.934 75.9032 162.653 75.6219C162.392 75.3607 161.841 75.1045 161.279 74.979C159.805 74.6575 159.654 74.6023 159.559 74.3813C159.494 74.2256 159.544 74.0448 159.689 73.9142C159.83 73.7886 160.231 73.7082 160.532 73.7384C161.008 73.7886 161.259 73.9795 161.384 74.3863C161.409 74.4667 161.495 74.4767 162.197 74.4767H162.984L162.954 74.2256C162.919 73.9343 162.778 73.5977 162.593 73.3466C162.402 73.1005 161.916 72.7891 161.52 72.6635C161.144 72.548 160.201 72.4928 159.79 72.5681Z" fill="#404040"/>
<path d="M207.179 72.5681C206.557 72.6786 206.126 72.8946 205.795 73.2512C205.499 73.5726 205.379 73.869 205.354 74.3511C205.319 75.0443 205.504 75.426 206.051 75.7826C206.417 76.0187 206.748 76.1342 207.746 76.3602C208.172 76.4556 208.588 76.5762 208.674 76.6264C209.04 76.8424 208.934 77.2944 208.478 77.4501C208.343 77.4953 208.102 77.5355 207.951 77.5405C207.385 77.5405 207.019 77.3447 206.873 76.9629L206.783 76.7369H205.991H205.193V76.8524C205.193 77.0785 205.354 77.5707 205.504 77.8017C205.89 78.4095 206.703 78.741 207.801 78.741C209.456 78.741 210.464 77.9675 210.464 76.7018C210.464 76.2648 210.323 75.9032 210.043 75.6219C209.782 75.3607 209.23 75.1045 208.669 74.979C207.194 74.6575 207.044 74.6023 206.949 74.3813C206.883 74.2256 206.933 74.0448 207.079 73.9142C207.219 73.7886 207.621 73.7082 207.921 73.7384C208.398 73.7886 208.649 73.9795 208.774 74.3863C208.799 74.4667 208.884 74.4767 209.586 74.4767H210.374L210.344 74.2256C210.308 73.9343 210.168 73.5977 209.982 73.3466C209.792 73.1005 209.305 72.7891 208.909 72.6635C208.533 72.548 207.59 72.4928 207.179 72.5681Z" fill="#404040"/>
<path d="M111.065 72.6383C110.815 72.7035 110.529 72.8643 110.393 73.0099C110.348 73.0652 110.233 73.251 110.138 73.4268L109.962 73.7483V73.2058V72.6684H109.16H108.357V75.6067V78.5449H109.16H109.962V77.1988C109.962 75.3907 110.032 75.0039 110.439 74.6122C110.679 74.3761 110.99 74.2756 111.477 74.2756H111.868V73.4218V72.5679L111.582 72.573C111.421 72.573 111.191 72.6031 111.065 72.6383Z" fill="#404040"/>
<path d="M131.727 72.6383C131.476 72.7035 131.19 72.8643 131.055 73.0099C131.009 73.0652 130.894 73.251 130.799 73.4268L130.623 73.7483V73.2058V72.6684H129.821H129.019V75.6067V78.5449H129.821H130.623V77.1988C130.623 75.3907 130.693 75.0039 131.1 74.6122C131.34 74.3761 131.651 74.2756 132.138 74.2756H132.529V73.4218V72.5679L132.243 72.573C132.083 72.573 131.852 72.6031 131.727 72.6383Z" fill="#404040"/>
<path d="M112.269 75.6067V78.5449H113.071H113.873V75.6067V72.6684H113.071H112.269V75.6067Z" fill="#404040"/>
<path d="M132.93 75.6067V78.5449H133.732H134.534V75.6067V72.6684H133.732H132.93V75.6067Z" fill="#404040"/>
<path d="M168.886 72.6835C168.886 72.6935 169.347 74.0094 169.914 75.6067C170.48 77.2089 170.942 78.5198 170.942 78.5299C170.942 78.5399 171.343 78.5449 171.839 78.5449H172.732L172.837 78.2536C173.093 77.5555 174.803 72.7035 174.803 72.6885C174.803 72.6734 174.402 72.6734 173.916 72.6784L173.028 72.6935L172.466 74.7176C172.155 75.8327 171.895 76.7518 171.885 76.7669C171.865 76.782 171.142 74.3158 170.731 72.8291L170.686 72.6684H169.788C169.292 72.6684 168.886 72.6784 168.886 72.6835Z" fill="#404040"/>
<path d="M175.204 75.6067V78.5449H176.006H176.809V75.6067V72.6684H176.006H175.204V75.6067Z" fill="#404040"/>
<path d="M198.423 75.6067V78.5449H199.225H200.028V75.6067V72.6684H199.225H198.423V75.6067Z" fill="#404040"/>
<path d="M153.816 76.6515C153.801 76.6816 153.555 77.43 153.27 78.309L152.748 79.9112L152.904 79.9765C153.53 80.2377 153.716 80.298 153.746 80.2678C153.846 80.1573 155.341 77.214 155.306 77.1839C155.286 77.1688 155.055 77.0684 154.794 76.9629C154.533 76.8624 154.207 76.7318 154.077 76.6816C153.896 76.6113 153.831 76.6013 153.816 76.6515Z" fill="#404040"/>
<defs>
<clipPath id="clip0_909_18295">
<rect width="73.3227" height="73.3227" fill="white"/>
</clipPath>
</defs>
</svg>
