<svg width="74" height="74" viewBox="0 0 74 74" fill="none" xmlns="http://www.w3.org/2000/svg">
<g clip-path="url(#clip0_547_10147)">
<path d="M41.8689 34.2529V41.9907C44.26 41.9957 47.4129 41.9947 48.6491 42.0118C49.7167 42.0266 50.4292 42.0469 50.9175 42.0749C51.4057 42.1029 51.6694 42.1386 51.8396 42.1837C52.1781 42.2722 52.5103 42.386 52.8339 42.523C53.1575 42.66 53.4725 42.8203 53.7765 43.0013C54.0805 43.1822 54.3735 43.3841 54.6533 43.6044C54.933 43.8247 55.1995 44.0636 55.4503 44.3188C55.7011 44.574 55.9363 44.8454 56.1535 45.1309C56.3708 45.4163 56.5701 45.7156 56.7491 46.0267C56.9281 46.3379 57.0868 46.6609 57.2229 46.9932C57.359 47.3255 57.4725 47.6673 57.561 48.0162C57.6139 48.2228 57.6569 48.4313 57.6902 48.6411C57.7234 48.8509 57.7472 49.062 57.7613 49.2737C57.7755 49.4855 57.7803 49.6979 57.776 49.9102C57.7717 50.1226 57.7583 50.3349 57.7361 50.5465C57.7139 50.7582 57.6831 50.9691 57.6436 51.1788C57.6041 51.3884 57.556 51.5968 57.4997 51.8031C57.4435 52.0094 57.379 52.2139 57.3067 52.4156C57.2344 52.6173 57.1541 52.8163 57.0663 53.012C56.9784 53.2077 56.8829 53.4001 56.78 53.5885C56.6772 53.7769 56.5671 53.9613 56.4499 54.1412C56.3327 54.321 56.2086 54.4963 56.0776 54.6662C55.9467 54.8362 55.809 55.0008 55.6649 55.1595C55.5208 55.3182 55.3702 55.471 55.2135 55.6172C55.0568 55.7634 54.8938 55.9031 54.7251 56.0354C54.5564 56.1678 54.3818 56.2928 54.2017 56.4099C54.0216 56.5271 53.8359 56.6364 53.6449 56.737C53.4123 56.8586 53.2214 56.9643 53.0349 57.0562C52.8483 57.1481 52.666 57.2262 52.4508 57.2926C52.2357 57.359 51.9878 57.4136 51.6695 57.4586C51.3512 57.5036 50.9627 57.539 50.4667 57.5668C49.9707 57.5946 49.3669 57.6148 48.6186 57.6295C47.8703 57.6441 46.9772 57.6531 45.9019 57.6587C43.7514 57.67 40.8725 57.6675 36.9669 57.6675H22.8995L22.9412 53.2238L22.9827 48.7939L22.219 49.5298C21.1497 50.5575 10.1235 61.1253 9.80405 61.4308C9.7676 61.4638 9.72617 61.4828 9.69807 61.5069C9.66997 61.5309 9.65531 61.5599 9.67224 61.6126C9.68916 61.6654 9.73778 61.7419 9.8364 61.861C9.93502 61.9801 10.0836 62.1416 10.3006 62.3647C10.7346 62.8108 11.4419 63.5026 12.5694 64.5905C13.6968 65.6785 15.2442 67.1626 17.3585 69.1935C19.4554 71.2071 21.5802 73.2485 22.0801 73.7207L22.9827 74.6094L22.9412 70.0267L22.8995 65.4581L37.5224 65.4164L52.1451 65.3609L53.5339 64.9998C53.8862 64.9061 54.2301 64.8045 54.566 64.6949C54.902 64.5853 55.2301 64.4677 55.5506 64.3417C55.8711 64.2158 56.184 64.0814 56.49 63.9386C56.796 63.7958 57.095 63.6445 57.3875 63.4843C57.68 63.3242 57.9659 63.1553 58.2459 62.9774C58.5259 62.7994 58.7997 62.6124 59.0681 62.4162C59.3365 62.2199 59.5996 62.0144 59.8574 61.7994C60.1152 61.5843 60.3679 61.3596 60.6162 61.1252C60.926 60.8301 61.2216 60.5246 61.5029 60.2094C61.7841 59.8943 62.051 59.5696 62.3033 59.2363C62.5556 58.903 62.7933 58.5611 63.0163 58.2116C63.2393 57.8622 63.4475 57.5051 63.6408 57.1415C63.8342 56.7778 64.0127 56.4075 64.176 56.0316C64.3393 55.6557 64.4875 55.2742 64.6205 54.888C64.7535 54.5017 64.8712 54.1108 64.9734 53.7162C65.0757 53.3217 65.1624 52.9234 65.2336 52.5224C65.3048 52.1214 65.3603 51.7177 65.4 51.3122C65.4398 50.9068 65.4636 50.4996 65.4716 50.0917C65.4796 49.6838 65.4716 49.2752 65.4474 48.8667C65.4233 48.4582 65.383 48.05 65.3264 47.6429C65.2697 47.2359 65.1968 46.83 65.1073 46.4263C65.0178 46.0226 64.912 45.621 64.7893 45.2226C64.6667 44.8242 64.5273 44.429 64.3711 44.0379C64.2149 43.6468 64.0418 43.2599 63.8518 42.878C63.7181 42.6107 63.5782 42.3489 63.4321 42.0926C63.2861 41.8363 63.1339 41.5855 62.9756 41.3403C62.8173 41.0952 62.6529 40.8557 62.4825 40.6218C62.3122 40.388 62.1359 40.1599 61.9537 39.9375C61.7714 39.7151 61.5832 39.4984 61.3892 39.2876C61.1951 39.0768 60.9953 38.8716 60.7897 38.6725C60.5841 38.4733 60.3728 38.2802 60.1558 38.0929C59.9388 37.9056 59.716 37.7243 59.4878 37.549C59.2595 37.3736 59.0257 37.2042 58.7864 37.041C58.547 36.8778 58.3021 36.7207 58.0518 36.5697C57.8015 36.4187 57.5458 36.274 57.2847 36.1354C57.0237 35.9968 56.7574 35.8644 56.4857 35.7383C56.214 35.6123 55.937 35.4925 55.6549 35.3791C55.3728 35.2657 55.0856 35.1587 54.7932 35.0581C54.2085 34.8568 53.6032 34.6813 52.9783 34.532C52.869 34.5043 52.7468 34.4795 52.5902 34.4574C52.4336 34.4352 52.2424 34.4156 51.9952 34.3982C51.5007 34.3632 50.7816 34.3367 49.6646 34.315C48.3108 34.2887 44.7004 34.2718 41.8689 34.2529Z" fill="white"/>
<path d="M32.3622 41.7822V34.0444C29.9711 34.0395 26.8183 34.0404 25.582 34.0233C24.5145 34.0085 23.8019 33.9882 23.3137 33.9602C22.8255 33.9322 22.5617 33.8965 22.3916 33.8514C22.0531 33.7629 21.7208 33.6491 21.3972 33.5121C21.0737 33.3751 20.7586 33.2148 20.4546 33.0338C20.1506 32.8529 19.8576 32.651 19.5778 32.4307C19.2981 32.2104 19.0317 31.9715 18.7808 31.7163C18.53 31.4611 18.2949 31.1897 18.0776 30.9042C17.8604 30.6188 17.661 30.3195 17.482 30.0084C17.303 29.6972 17.1443 29.3742 17.0082 29.0419C16.8721 28.7096 16.7587 28.3678 16.6701 28.0189C16.6172 27.8123 16.5743 27.6038 16.541 27.394C16.5077 27.1842 16.484 26.9731 16.4698 26.7614C16.4556 26.5496 16.4508 26.3372 16.4551 26.1249C16.4594 25.9125 16.4728 25.7002 16.495 25.4886C16.5172 25.2769 16.5481 25.066 16.5876 24.8563C16.6271 24.6467 16.6752 24.4384 16.7314 24.232C16.7876 24.0257 16.8521 23.8212 16.9244 23.6195C16.9968 23.4178 17.077 23.2188 17.1649 23.0231C17.2527 22.8274 17.3483 22.635 17.4511 22.4466C17.5539 22.2582 17.6641 22.0738 17.7812 21.8939C17.8984 21.7141 18.0225 21.5388 18.1535 21.3689C18.2844 21.1989 18.4221 21.0343 18.5662 20.8756C18.7104 20.7169 18.8609 20.5641 19.0176 20.4179C19.1743 20.2717 19.3373 20.132 19.506 19.9997C19.6748 19.8673 19.8493 19.7423 20.0294 19.6252C20.2096 19.508 20.3953 19.3987 20.5862 19.2981C20.8188 19.1765 21.0097 19.0708 21.1963 18.9789C21.3828 18.887 21.5651 18.8089 21.7803 18.7425C21.9954 18.6761 22.2433 18.6215 22.5616 18.5765C22.8799 18.5315 23.2684 18.4961 23.7645 18.4683C24.2605 18.4405 24.8642 18.4203 25.6125 18.4056C26.3609 18.391 27.254 18.382 28.3292 18.3764C30.4797 18.3651 33.3586 18.3676 37.2643 18.3676H51.3316L51.29 22.8113L51.2485 27.2412L52.0121 26.5053C53.0814 25.4776 64.1077 14.9098 64.4271 14.6043C64.4635 14.5713 64.505 14.5523 64.5331 14.5282C64.5612 14.5042 64.5758 14.4752 64.5589 14.4225C64.542 14.3697 64.4934 14.2932 64.3947 14.1741C64.2961 14.055 64.1475 13.8935 63.9305 13.6704C63.4966 13.2243 62.7892 12.5325 61.6618 11.4446C60.5343 10.3566 58.9869 8.87253 56.8726 6.84158C54.7757 4.82798 52.651 2.7866 52.151 2.31445L51.2485 1.4257L51.29 6.00837L51.3316 10.577L36.7087 10.6187L22.086 10.6742L20.6973 11.0353C20.3449 11.129 20.0011 11.2306 19.6651 11.3402C19.3292 11.4498 19.001 11.5674 18.6806 11.6934C18.3601 11.8193 18.0472 11.9537 17.7412 12.0965C17.4352 12.2393 17.1362 12.3907 16.8437 12.5508C16.5512 12.7109 16.2652 12.8798 15.9852 13.0577C15.7053 13.2357 15.4314 13.4227 15.163 13.6189C14.8946 13.8152 14.6316 14.0207 14.3737 14.2357C14.1159 14.4508 13.8632 14.6755 13.615 14.9099C13.3051 15.205 13.0095 15.5105 12.7283 15.8257C12.447 16.1408 12.1801 16.4655 11.9278 16.7988C11.6755 17.1321 11.4378 17.474 11.2148 17.8235C10.9918 18.1729 10.7836 18.53 10.5903 18.8937C10.397 19.2573 10.2184 19.6276 10.0551 20.0035C9.89178 20.3794 9.74358 20.7609 9.61063 21.1472C9.47767 21.5334 9.35993 21.9243 9.25769 22.3189C9.15546 22.7134 9.06869 23.1117 8.99752 23.5127C8.92635 23.9137 8.87086 24.3175 8.83112 24.7229C8.79137 25.1283 8.76749 25.5355 8.75952 25.9434C8.75154 26.3513 8.75952 26.7599 8.78372 27.1684C8.80787 27.5769 8.84813 27.9851 8.90476 28.3922C8.96139 28.7992 9.03438 29.2052 9.12384 29.6088C9.21331 30.0125 9.31914 30.4141 9.44179 30.8125C9.56444 31.2109 9.70384 31.6061 9.86002 31.9972C10.0162 32.3883 10.1893 32.7752 10.3793 33.1571C10.513 33.4244 10.653 33.6862 10.799 33.9425C10.9451 34.1988 11.0972 34.4496 11.2555 34.6948C11.4138 34.9399 11.5782 35.1794 11.7486 35.4133C11.9189 35.6471 12.0952 35.8752 12.2775 36.0976C12.4597 36.32 12.648 36.5367 12.842 36.7475C13.036 36.9583 13.2359 37.1635 13.4415 37.3626C13.647 37.5618 13.8583 37.7549 14.0753 37.9422C14.2923 38.1295 14.5151 38.3108 14.7433 38.4861C14.9716 38.6615 15.2054 38.8309 15.4447 38.9941C15.6841 39.1573 15.929 39.3144 16.1793 39.4654C16.4296 39.6164 16.6853 39.7611 16.9464 39.8997C17.2074 40.0383 17.4738 40.1707 17.7454 40.2968C18.0171 40.4229 18.2941 40.5426 18.5762 40.656C18.8583 40.7694 19.1455 40.8764 19.4379 40.977C20.0227 41.1783 20.6279 41.3538 21.2528 41.5031C21.3622 41.5308 21.4843 41.5556 21.6409 41.5777C21.7976 41.5999 21.9887 41.6195 22.2359 41.6369C22.7304 41.6719 23.4495 41.6984 24.5665 41.7201C25.9204 41.7464 29.5307 41.7633 32.3622 41.7822Z" fill="#FFD466"/>
</g>
<defs>
<clipPath id="clip0_547_10147">
<rect width="73.3227" height="73.3227" fill="white" transform="translate(-3.05176e-05 0.42569)"/>
</clipPath>
</defs>
</svg>
